<?xml version="1.0" encoding="UTF-8"?><svg id="a" xmlns="http://www.w3.org/2000/svg" viewBox="0 0 1744.2 1954.8"><polygon points="134 1827.8 134 1270.6 0 1177.1 0 765.1 212.4 861.1 212.4 982.6 149.2 982.6 457.5 1124.1 457.5 1954.8 134 1827.8"/><polygon points="1610.2 1827.8 1610.2 1270.6 1744.2 1177.1 1744.2 765.1 1531.8 861.1 1531.8 982.6 1595 982.6 1286.7 1124.1 1286.7 1954.8 1610.2 1827.8"/><polygon points="0 597 872.1 943.3 1744.2 596.9 1744.2 698.1 1049.1 1011.5 1049.1 1418.5 872.1 1496.9 695.2 1421 695.2 1014 0 698.1 0 597"/><polygon points="0 533.3 0 412 872.1 0 1744.2 412 1744.2 533.3 872.1 879.7 0 533.3"/></svg>